# AST/ASF file generated using VICON BodyLanguage
# -----------------------------------------------
:version 1.10
:name VICON
:units
  mass 1.0
  length 0.45
  angle deg
:documentation
   .ast/.asf automatically generated from VICON data using
   VICON BodyBuilder and BodyLanguage model FoxedUp or BRILLIANT.MOD
:root
   order TX TY TZ RX RY RZ
   axis XYZ
   position 0 0 0  
   orientation 0 0 0 
:bonedata
  begin
     id 1 
     name lhipjoint
     direction 0.661853 -0.702389 0.261917 
     length 2.64193 
     axis 0 0 0  XYZ
  end
  begin
     id 2 
     name lfemur
     direction 0.34202 -0.939693 0  
     length 7.01722  
     axis 0 0 20  XYZ
    dof rx ry rz
    limits (-160.0 20.0)
           (-70.0 70.0)
           (-60.0 70.0)
  end
  begin
     id 3 
     name ltibia
     direction 0.34202 -0.939693 0   
     length 8.25008   
     axis 0 0 20   XYZ
    dof rx
    limits (-10.0 170.0)
  end
  begin
     id 4 
     name lfoot
     direction 0.0709916 -0.195048 0.978221   
     length 2.31941   
     axis -90 7.62852e-016 20   XYZ
    dof rx rz
    limits (-45.0 90.0)
           (-70.0 20.0)
  end
  begin
     id 5 
     name ltoes
     direction 1.53586e-011 -4.22017e-011 1   
     length 1.16486   
     axis -90 7.62852e-016 20   XYZ
    dof rx
    limits (-90.0 20.0)
  end
  begin
     id 6 
     name rhipjoint
     direction -0.638185 -0.721362 0.268992   
     length 2.57244  
     axis 0 0 0  XYZ 
  end
  begin
     id 7 
     name rfemur
     direction -0.34202 -0.939693 0   
     length 7.07017   
     axis 0 0 -20   XYZ
    dof rx ry rz
    limits (-160.0 20.0)
           (-70.0 70.0)
           (-70.0 60.0)
  end
  begin
     id 8 
     name rtibia
     direction -0.34202 -0.939693 0   
     length 8.20386   
     axis 0 0 -20   XYZ
    dof rx
    limits (-10.0 170.0)
 end
 begin
     id 9 
     name rfoot
     direction -0.0822429 -0.225961 0.970658   
     length 2.32215  
     axis -90 -7.62852e-016 -20   XYZ
    dof rx rz
    limits (-45.0 90.0)
           (-20.0 70.0)
  end
  begin
     id 10 
     name rtoes
     direction -1.53597e-011 -4.21689e-011 1   
     length 1.16333   
     axis -90 -7.62852e-016 -20   XYZ
    dof rx
    limits (-90.0 20.0)
  end
  begin
     id 11 
     name lowerback
     direction -0.0131557 0.998589 -0.0514484   
     length 2.14993   
     axis 0 0 0   XYZ
    dof rx ry rz
    limits (-20.0 45.0)
           (-30.0 30.0)
           (-30.0 30.0)
  end
  begin
     id 12 
     name upperback
     direction -0.000776481 0.999993 0.00352685   
     length 2.15301   
     axis 0 0 0   XYZ
    dof rx ry rz
    limits (-20.0 45.0)
           (-30.0 30.0)
           (-30.0 30.0)
  end
  begin
     id 13 
     name thorax
     direction 0.00438186 0.999609 0.0276143   
     length 2.15424   
     axis 0 0 0   XYZ
    dof rx ry rz
    limits (-20.0 45.0)
           (-30.0 30.0)
           (-30.0 30.0)
  end
  begin
     id 14 
     name lowerneck
     direction -0.0488006 0.998094 0.0377807   
     length 1.90481   
     axis 0 0 0   XYZ
    dof rx ry rz
    limits (-20.0 45.0)
           (-30.0 30.0)
           (-30.0 30.0)
  end
  begin
     id 15 
     name upperneck
     direction 0.0443769 0.990702 -0.12861   
     length 1.91305   
     axis 0 0 0   XYZ
    dof rx ry rz
    limits (-20.0 45.0)
           (-30.0 30.0)
           (-30.0 30.0)
  end
  begin
     id 16
     name head
     direction 0.0165599 0.998647 -0.0492982  
     length 1.92369  
     axis 0 0 0   XYZ
    dof rx ry rz
    limits (-20.0 45.0)
           (-30.0 30.0)
           (-30.0 30.0)
  end
  begin
     id 17 
     name lclavicle
     direction 0.911936 0.410197 -0.0105506  
     length 3.52622  
     axis 0 0 0   XYZ
    dof ry rz
    limits (-20.0 10.0)
           (0.0 20.0)
  end
  begin
     id 18 
     name lhumerus
     direction 1 -4.48974e-011 -2.48591e-028   
     length 5.47651   
     axis 180 -30 -90   XYZ
    dof rx ry rz
    limits (-60.0 90.0)
           (-90.0 90.0)
           (-90.0 90.0)
  end
  begin
     id 19
     name lradius
     direction 1 -4.48938e-011 -4.40099e-027   
     length 3.09058   
     axis 180 -30 -90   XYZ
    dof rx
    limits (-10.0 170.0)
  end
  begin
     id 20
     name lwrist
     direction 1 -4.49042e-011 -2.99852e-027   
     length 1.54529   
     axis 1.95339e-015 90 90   XYZ
    dof ry
    limits (-180.0 0.0)
 end
  begin
     id 21 
     name lhand
     direction 1 -4.48815e-011 -5.98193e-027   
     length 0.771611   
     axis 3.82337e-015 90 90   XYZ
    dof rx rz
    limits (-90.0 90.0)
           (-45.0 45.0)
  end
  begin
     id 22 
     name lfingers
     direction 1 -4.49034e-011 -1.1993e-026   
     length 0.622093   
     axis 7.64668e-015 90 90   XYZ
    dof rx
    limits (0.0 90.0)
  end
  begin
     id 23
     name lthumb
     direction 0.707107 -6.34867e-011 0.707107   
     length 0.893204   
     axis -90 45 -1.62303e-014   XYZ
    dof rx rz
    limits (-45.0 45.0)
           (-45.0 45.0)
  end
  begin
     id 24 
     name rclavicle
     direction -0.93442 0.355634 -0.0195692   
     length 3.62463  
     axis 0 0 0   XYZ 
    dof ry rz
    limits (-10.0 20.0)
           (-20.0 0.0)
  end
  begin
     id 25 
     name rhumerus
     direction -1 -4.48957e-011 -1.19147e-027  
     length 5.14182   
     axis 180 30 90   XYZ
    dof rx ry rz
    limits (-90.0 60.0)
           (-90.0 90.0)
           (-90.0 90.0)
  end
  begin
     id 26 
     name rradius
     direction -1 -4.48952e-011 -3.81062e-027   
     length 3.35565   
     axis 180 30 90   XYZ
    dof rx
    limits (-10.0 170.0)
  end
  begin
     id 27 
     name rwrist
     direction -1 -4.48973e-011 -2.99621e-027   
     length 1.67782   
     axis 1.95339e-015 -90 -90   XYZ
    dof ry
    limits (-180.0 0.0)
  end
  begin
     id 28
     name rhand
     direction -1 -4.48895e-011 -5.98727e-027   
     length 0.801042   
     axis 3.82337e-015 -90 -90   XYZ
    dof rx rz
    limits (-90.0 90.0)
           (-45.0 45.0)
  end
  begin
     id 29
     name rfingers
     direction -1 -4.49065e-011 -1.19972e-026   
     length 0.645821   
     axis 7.64668e-015 -90 -90   XYZ
    dof rx
    limits (0.0 90.0)
  end
  begin
     id 30
     name rthumb
     direction -0.707107 -6.34957e-011 0.707107   
     length 0.927273   
     axis -90 -45 1.62303e-014   XYZ
    dof rx rz
    limits (-45.0 45.0)
           (-45.0 45.0)
  end
:hierarchy
  begin
    root lhipjoint rhipjoint lowerback
    lhipjoint lfemur
    lfemur ltibia
    ltibia lfoot
    lfoot ltoes
    rhipjoint rfemur
    rfemur rtibia
    rtibia rfoot
    rfoot rtoes
    lowerback upperback
    upperback thorax
    thorax lowerneck lclavicle rclavicle
    lowerneck upperneck
    upperneck head
    lclavicle lhumerus
    lhumerus lradius
    lradius lwrist
    lwrist lhand lthumb
    lhand lfingers
    rclavicle rhumerus
    rhumerus rradius
    rradius rwrist
    rwrist rhand rthumb
    rhand rfingers
  end

#!OML:ASF E:\Style4\Style4.ASF
:FULLY-SPECIFIED
:DEGREES
574
root 0.515149 17.3363 -2.34304 -2.16192 -18.3774 4.09288
lowerback 15.3654 1.51812 -4.93258
upperback 10.409 1.28689 -1.93701
thorax 2.40226 0.409119 0.568278
lowerneck 1.29423 1.01775 -2.70541
upperneck 8.74833 1.33792 0.386204
head 2.51706 0.579222 0.606571
rclavicle 5.87409e-014 1.27222e-014
rhumerus 68.3273 -2.66986 -33.2597
rradius 39.5685
rwrist -6.77674
rhand 42.0577 -0.745849
rfingers 7.12502
rthumb 64.0774 -9.3876
lclavicle 5.87409e-014 1.27222e-014
lhumerus 69.5555 9.68615 30.0653
lradius 45.1523
lwrist 3.39439
lhand 28.5345 44.169
lfingers 7.12502
lthumb 52.3847 64.0433
rfemur -27.0817 6.99751 14.1502
rtibia 42.936
rfoot -13.9481 -8.87911
rtoes -16.8985
lfemur -19.9869 10.5263 -22.4129
ltibia 41.1772
lfoot -21.0881 12.7174
ltoes -14.5138
575
root 0.510894 17.3318 -2.34446 -2.14813 -18.1868 4.12424
lowerback 15.3593 1.51651 -4.97658
upperback 10.4044 1.28131 -1.92295
thorax 2.40005 0.40436 0.608475
lowerneck 1.30531 0.995257 -2.67694
upperneck 8.81036 1.31216 0.322862
head 2.5366 0.565038 0.58144
rclavicle -2.55438e-014 1.37161e-014
rhumerus 68.3662 -2.62081 -33.3072
rradius 39.5933
rwrist -6.75417
rhand 41.9891 -0.592181
rfingers 7.12502
rthumb 64.0221 -9.31746
lclavicle -2.55438e-014 1.37161e-014
lhumerus 69.5001 9.68134 30.0128
lradius 45.1998
lwrist 3.47684
lhand 28.5274 43.8643
lfingers 7.12502
lthumb 52.3783 63.7425
rfemur -27.1383 6.8576 14.1116
rtibia 43.068
rfoot -14.0299 -8.89274
rtoes -16.4066
lfemur -20.0538 10.4785 -22.4501
ltibia 41.2053
lfoot -21.0477 12.6739
ltoes -14.8466
576
root 0.507864 17.3277 -2.34762 -2.12953 -17.9144 4.15216
lowerback 15.3987 1.46813 -5.01723
upperback 10.4102 1.21227 -1.89792
thorax 2.38817 0.36769 0.665972
lowerneck 1.28471 0.9722 -2.75764
upperneck 8.81741 1.282 0.341131
head 2.54286 0.548069 0.600788
rclavicle -5.94366e-014 2.52457e-014
rhumerus 68.4892 -2.56317 -33.2855
rradius 39.5942
rwrist -6.84488
rhand 41.8342 -0.522759
rfingers 7.12502
rthumb 63.8971 -9.43513
lclavicle -5.94366e-014 2.52457e-014
lhumerus 69.4505 9.69983 30.0313
lradius 45.3706
lwrist 3.50382
lhand 28.5801 43.9856
lfingers 7.12502
lthumb 52.426 63.8348
rfemur -27.1819 6.65526 14.0709
rtibia 43.1969
rfoot -14.0773 -8.9907
rtoes -16.4529
lfemur -20.1569 10.2878 -22.49
ltibia 41.2799
lfoot -21.0178 12.594
ltoes -14.6954
577
root 0.505283 17.323 -2.35358 -2.10357 -17.6703 4.20874
lowerback 15.4475 1.44292 -5.09707
upperback 10.4206 1.16813 -1.86324
thorax 2.37482 0.341094 0.752121
lowerneck 1.41326 0.956943 -3.01931
upperneck 8.59581 1.24431 0.559083
head 2.44492 0.529601 0.711606
rclavicle -7.18607e-014 3.55825e-014
rhumerus 68.6212 -2.52952 -33.2442
rradius 39.6039
rwrist -6.88069
rhand 41.6235 -0.551205
rfingers 7.12502
rthumb 63.7265 -9.71519
lclavicle -7.18607e-014 3.55825e-014
lhumerus 69.419 9.71728 30.0779
lradius 45.5404
lwrist 3.53196
lhand 28.5275 44.1987
lfingers 7.12502
lthumb 52.3784 64.0769
rfemur -27.2684 6.46985 14.0008
rtibia 43.3245
rfoot -14.1406 -9.0762
rtoes -16.5863
lfemur -20.3147 10.1253 -22.5649
ltibia 41.3982
lfoot -20.9661 12.5479
ltoes -14.84
578
root 0.501061 17.3156 -2.3591 -2.02837 -17.466 4.13062
lowerback 15.4592 1.47693 -5.00009
upperback 10.4288 1.2252 -1.84077
thorax 2.37487 0.374434 0.713837
lowerneck 1.65173 0.846526 -3.0013
upperneck 8.32609 1.08472 0.617874
head 2.31571 0.455579 0.720651
rclavicle 1.03368e-014 -2.78299e-015
rhumerus 68.5598 -2.59919 -33.2762
rradius 39.6041
rwrist -6.77781
rhand 41.4896 -0.675016
rfingers 7.12502
rthumb 63.6179 -9.99708
lclavicle 1.03368e-014 -2.78299e-015
lhumerus 69.5472 9.59595 30.0947
lradius 45.7264
lwrist 3.68401
lhand 28.2731 44.3846
lfingers 7.12502
lthumb 52.1479 64.402
rfemur -27.3526 6.3718 14.0829
rtibia 43.4313
rfoot -14.1561 -9.21357
rtoes -16.8312
lfemur -20.4919 10.0095 -22.4901
ltibia 41.5505
lfoot -20.955 12.4954
ltoes -15.0848
579
root 0.496527 17.3098 -2.36183 -1.9827 -17.2838 4.02521
lowerback 15.5004 1.54045 -4.80772
upperback 10.4164 1.32954 -1.85063
thorax 2.33673 0.438436 0.581359
lowerneck 2.07303 0.675956 -2.72836
upperneck 7.97475 0.852786 0.459504
head 2.13015 0.348388 0.615234
rclavicle -2.74323e-014 -1.05356e-014
rhumerus 68.3545 -2.65683 -33.3876
rradius 39.5624
rwrist -6.59793
rhand 41.4907 -0.602919
rfingers 7.12502
rthumb 63.6188 -9.92371
lclavicle -2.74323e-014 -1.05356e-014
lhumerus 69.7496 9.38379 30.0569
lradius 45.8875
lwrist 3.89337
lhand 28.1017 44.5042
lfingers 7.12502
lthumb 51.9925 64.6143
rfemur -27.383 6.30682 14.1922
rtibia 43.5377
rfoot -14.209 -9.31002
rtoes -16.5963
lfemur -20.6173 9.90603 -22.374
ltibia 41.7098
lfoot -21.0591 12.4121
ltoes -15.1943
580
root 0.490477 17.305 -2.36351 -1.95806 -17.1016 3.92358
lowerback 15.5316 1.55898 -4.7067
upperback 10.4222 1.36527 -1.81562
thorax 2.32513 0.460962 0.556356
lowerneck 2.3465 0.60965 -2.59854
upperneck 7.73371 0.762112 0.357675
head 2.00501 0.307205 0.556872
rclavicle -1.14301e-014 4.45278e-014
rhumerus 68.3063 -2.6238 -33.363
rradius 39.5692
rwrist -6.60067
rhand 41.5256 -0.519817
rfingers 7.12502
rthumb 63.6472 -9.79948
lclavicle -1.14301e-014 4.45278e-014
lhumerus 69.7928 9.27624 30.1051
lradius 46.0459
lwrist 3.97095
lhand 28.1465 44.4254
lfingers 7.12502
lthumb 52.0331 64.5114
rfemur -27.3794 6.23518 14.3056
rtibia 43.6427
rfoot -14.3043 -9.42914
rtoes -16.4328
lfemur -20.7125 9.80527 -22.2565
ltibia 41.8679
lfoot -21.0656 12.3115
ltoes -15.1585
581
root 0.484888 17.2991 -2.36772 -1.9642 -16.9252 3.92041
lowerback 15.5964 1.5847 -4.71818
upperback 10.4211 1.39426 -1.80876
thorax 2.28867 0.475869 0.564875
lowerneck 2.63053 0.549064 -2.37173
upperneck 7.49848 0.683696 0.188931
head 1.88051 0.273292 0.461992
rclavicle 6.41081e-014 -2.5842e-015
rhumerus 68.2488 -2.58614 -33.2023
rradius 39.6483
rwrist -6.73607
rhand 41.4055 -0.557313
rfingers 7.12502
rthumb 63.5495 -9.97804
lclavicle 6.41081e-014 -2.5842e-015
lhumerus 69.7972 9.14855 30.0699
lradius 46.2173
lwrist 4.10379
lhand 28.0524 44.3503
lfingers 7.12502
lthumb 51.9478 64.4869
rfemur -27.4087 6.1401 14.315
rtibia 43.7629
rfoot -14.3709 -9.49623
rtoes -16.2875
lfemur -20.815 9.71525 -22.2481
ltibia 42.0146
lfoot -20.967 12.2323
ltoes -15.2001
